<svg width="200" height="200" viewBox="0 0 200 200" fill="none" xmlns="http://www.w3.org/2000/svg">
<g clip-path="url(#clip0_15_178)">
<path d="M58.2955 112.589V94.4218C65.5467 95.6937 66.637 99.7129 66.8014 102.077C66.8436 102.682 67.3436 103.15 67.9507 103.15H75.8702C76.5355 103.15 77.0589 102.587 77.0249 101.923C76.5108 91.9586 69.6815 85.5476 58.2955 84.1078V77.9984C58.2955 77.3616 57.7795 76.8456 57.1428 76.8456H49.2232C48.5865 76.8456 48.0705 77.3616 48.0705 77.9984V84.1078C36.224 85.6058 29.3103 92.4851 29.3103 103.15C29.3103 113.815 36.2244 120.694 48.0705 122.191V140.358C40.8193 139.086 39.7291 135.067 39.5646 132.704C39.5224 132.098 39.0224 131.63 38.4154 131.63H30.495C29.8298 131.63 29.3064 132.193 29.3404 132.858C29.8544 142.822 36.6837 149.233 48.0697 150.672V156.782C48.0697 157.419 48.5857 157.935 49.2225 157.935H57.142C57.7787 157.935 58.2948 157.419 58.2948 156.782V150.672C70.1413 149.174 77.055 142.295 77.055 131.63C77.0562 120.967 70.1425 114.087 58.2955 112.589ZM48.0697 111.879C39.5369 110.383 39.5349 105.082 39.5349 103.151C39.5349 101.221 39.5369 95.9191 48.0697 94.4222V111.879ZM58.2955 140.36V122.902C66.8284 124.398 66.8303 129.701 66.8303 131.631C66.8303 133.561 66.8288 138.863 58.2955 140.36Z" fill="#959595" fill-opacity="0.33"/>
<path d="M160.141 200H7.33011C3.90861 200 1.13516 197.226 1.13516 193.805V62.8057C1.13516 59.385 3.90861 56.6108 7.33011 56.6108C10.7516 56.6108 13.5251 59.385 13.5251 62.8057V187.611H160.141C163.562 187.611 166.336 190.385 166.336 193.806C166.336 197.227 163.562 200 160.141 200Z" fill="#959595" fill-opacity="0.33"/>
<path d="M172.378 21.0063L152.844 54.2846L173.134 66.1936L192.667 32.9153L172.378 21.0063Z" fill="white"/>
<path d="M55.0092 49.4709H155.678L172.38 21.0134L186.045 29.0333C183.996 16.1415 172.762 6.20393 159.316 6.20393H33.365C48.251 6.20393 60.4303 18.3833 60.4303 33.2693C60.4303 39.3334 58.4096 44.9455 55.0092 49.4709Z" fill="white"/>
<path d="M198.666 31.363C198.252 29.7728 197.223 28.4118 195.806 27.581L191.537 25.0751C187.818 10.593 174.475 0.0105469 159.316 0.0105469H35.8771C35.8771 0.0105469 35.138 3.04861e-08 34.7712 3.04861e-08C16.2063 -0.000781223 1.13516 15.0141 1.13516 33.5794C1.13516 37.0001 3.90861 39.7744 7.33011 39.7744C10.7516 39.7744 13.5251 37.0001 13.5251 33.5794C13.5251 22.4513 22.1138 13.2977 33.0091 12.3821C33.1275 12.3887 33.2451 12.4 33.3654 12.4C44.8732 12.4 54.235 21.7626 54.235 33.2704C54.235 37.7966 52.7897 42.1115 50.0564 45.7498C48.6463 47.6264 48.4178 50.1389 49.4666 52.2389C50.5154 54.3397 52.6615 55.6658 55.0088 55.6658H144.858L97.2969 136.697C96.4394 138.156 96.2176 139.904 96.6824 141.533L101.145 157.169C101.918 159.88 104.391 161.666 107.097 161.666C107.568 161.666 108.045 161.612 108.522 161.499L124.35 157.771C125.998 157.383 127.415 156.337 128.272 154.877L153.945 111.138V164.092C153.945 167.512 156.719 170.287 160.14 170.287C163.56 170.287 166.335 167.512 166.335 164.092V89.2539C166.335 88.5679 166.219 87.9097 166.012 87.2925C165.653 85.6714 164.652 84.1968 163.106 83.2894C160.157 81.5585 156.36 82.546 154.628 85.4968L118.927 146.319L111.435 148.084L109.323 140.683L155.051 62.7729L169.998 71.5464C170.958 72.1097 172.041 72.3987 173.135 72.3987C173.657 72.3987 174.181 72.3331 174.695 72.1991C176.285 71.7854 177.646 70.7569 178.477 69.3393L198.011 36.0591C198.845 34.6419 199.079 32.9525 198.666 31.363ZM59.244 12.4H159.315C163.132 12.4 166.765 13.4692 169.899 15.3364C169.876 15.3462 169.857 15.361 169.834 15.3712C169.576 15.4876 169.327 15.6196 169.086 15.7715C169.048 15.795 169.012 15.8215 168.974 15.8465C168.744 15.9977 168.522 16.1645 168.311 16.3477C168.294 16.3626 168.276 16.3755 168.258 16.3903C168.043 16.5825 167.843 16.7923 167.654 17.0173C167.616 17.0618 167.579 17.1079 167.543 17.1548C167.361 17.3829 167.189 17.6208 167.037 17.879L152.13 43.276H65.0885C66.1038 40.072 66.6249 36.7099 66.6249 33.2708C66.6249 25.3735 63.8592 18.111 59.244 12.4ZM170.93 57.7237L161.326 52.0858L174.587 29.4919L184.192 35.1294L170.93 57.7237Z" fill="#959595" fill-opacity="0.33"/>
</g>
<defs>
<clipPath id="clip0_15_178">
<rect width="200" height="200" fill="white"/>
</clipPath>
</defs>
</svg>
